<mxfile host="Electron" modified="2024-05-01T09:15:34.485Z" agent="Mozilla/5.0 (Windows NT 10.0; Win64; x64) AppleWebKit/537.36 (KHTML, like Gecko) draw.io/24.2.5 Chrome/120.0.6099.109 Electron/28.1.0 Safari/537.36" version="24.2.5" etag="jKu0l69AwGEWMp-ttd1F" type="device">
  <diagram id="SoTLFJaYhnX8KAmrP4cS" name="Pagina-1">
    <mxGraphModel dx="525" dy="311" grid="1" gridSize="10" guides="1" tooltips="1" connect="1" arrows="1" fold="1" page="1" pageScale="1" pageWidth="827" pageHeight="1169" math="0" shadow="0">
      <root>
        <mxCell id="0" />
        <mxCell id="1" parent="0" />
        <mxCell id="AQRdRJSOZCZbxSZIa2Jv-1" value="Abbigliamento" style="whiteSpace=wrap;html=1;align=center;" vertex="1" parent="1">
          <mxGeometry x="527.19" y="132.75" width="85" height="30" as="geometry" />
        </mxCell>
        <mxCell id="AQRdRJSOZCZbxSZIa2Jv-2" value="&lt;font style=&quot;font-size: 8px;&quot;&gt;Periodo storico&lt;/font&gt;" style="text;html=1;align=center;verticalAlign=middle;whiteSpace=wrap;rounded=0;" vertex="1" parent="1">
          <mxGeometry x="214.11" y="90.63" width="71" height="29" as="geometry" />
        </mxCell>
        <mxCell id="AQRdRJSOZCZbxSZIa2Jv-3" value="&lt;font style=&quot;font-size: 8px;&quot;&gt;Nome&lt;/font&gt;" style="text;html=1;align=center;verticalAlign=middle;whiteSpace=wrap;rounded=0;" vertex="1" parent="1">
          <mxGeometry x="164.55" y="90.63" width="63" height="30" as="geometry" />
        </mxCell>
        <mxCell id="AQRdRJSOZCZbxSZIa2Jv-4" value="&lt;font style=&quot;font-size: 9px;&quot;&gt;Materiale&lt;/font&gt;" style="text;html=1;align=center;verticalAlign=middle;whiteSpace=wrap;rounded=0;" vertex="1" parent="1">
          <mxGeometry x="547.99" y="91.00000000000003" width="35" height="15" as="geometry" />
        </mxCell>
        <mxCell id="AQRdRJSOZCZbxSZIa2Jv-5" value="&lt;span style=&quot;font-size: 8px;&quot;&gt;(1,N)&lt;/span&gt;" style="text;html=1;align=center;verticalAlign=middle;whiteSpace=wrap;rounded=1;strokeColor=none;glass=0;" vertex="1" parent="1">
          <mxGeometry x="326.99000000000007" y="131.00000000000003" width="22.5" height="6.75" as="geometry" />
        </mxCell>
        <mxCell id="AQRdRJSOZCZbxSZIa2Jv-6" value="&lt;font style=&quot;font-size: 8px;&quot;&gt;(1,N)&lt;/font&gt;" style="text;html=1;align=center;verticalAlign=middle;whiteSpace=wrap;rounded=1;strokeColor=none;glass=0;" vertex="1" parent="1">
          <mxGeometry x="604.69" y="137.75" width="50" height="15" as="geometry" />
        </mxCell>
        <mxCell id="AQRdRJSOZCZbxSZIa2Jv-7" value="&lt;font style=&quot;font-size: 9px;&quot;&gt;Descrizione&lt;/font&gt;" style="text;html=1;align=center;verticalAlign=middle;whiteSpace=wrap;rounded=0;" vertex="1" parent="1">
          <mxGeometry x="590.99" y="92" width="40" height="14" as="geometry" />
        </mxCell>
        <mxCell id="AQRdRJSOZCZbxSZIa2Jv-8" value="&lt;font style=&quot;font-size: 9px;&quot;&gt;Colore&lt;/font&gt;" style="text;html=1;align=center;verticalAlign=middle;whiteSpace=wrap;rounded=0;" vertex="1" parent="1">
          <mxGeometry x="642.19" y="145.75" width="40" height="17" as="geometry" />
        </mxCell>
        <mxCell id="AQRdRJSOZCZbxSZIa2Jv-9" style="edgeStyle=orthogonalEdgeStyle;rounded=0;orthogonalLoop=1;jettySize=auto;html=1;exitX=1.011;exitY=0.878;exitDx=0;exitDy=0;endArrow=oval;endFill=0;exitPerimeter=0;" edge="1" parent="1">
          <mxGeometry relative="1" as="geometry">
            <mxPoint x="612.1949999999999" y="156.20000000000005" as="sourcePoint" />
            <mxPoint x="643.76" y="156.1099999999999" as="targetPoint" />
            <Array as="points">
              <mxPoint x="623.76" y="156.1099999999999" />
              <mxPoint x="623.76" y="156.1099999999999" />
            </Array>
          </mxGeometry>
        </mxCell>
        <mxCell id="AQRdRJSOZCZbxSZIa2Jv-10" value="&lt;font style=&quot;font-size: 9px;&quot;&gt;Nome&lt;/font&gt;" style="text;html=1;align=center;verticalAlign=middle;whiteSpace=wrap;rounded=0;" vertex="1" parent="1">
          <mxGeometry x="508.99" y="89.99999999999997" width="40" height="17" as="geometry" />
        </mxCell>
        <mxCell id="AQRdRJSOZCZbxSZIa2Jv-11" style="edgeStyle=orthogonalEdgeStyle;rounded=0;orthogonalLoop=1;jettySize=auto;html=1;endArrow=oval;endFill=0;" edge="1" parent="1">
          <mxGeometry relative="1" as="geometry">
            <mxPoint x="539.62" y="132.75" as="sourcePoint" />
            <mxPoint x="528.99" y="108.99999999999997" as="targetPoint" />
            <Array as="points">
              <mxPoint x="539.62" y="132.75" />
            </Array>
          </mxGeometry>
        </mxCell>
        <mxCell id="AQRdRJSOZCZbxSZIa2Jv-12" value="&lt;font style=&quot;font-size: 8px;&quot;&gt;(1,1)&lt;/font&gt;" style="text;html=1;align=center;verticalAlign=middle;whiteSpace=wrap;rounded=1;strokeColor=none;glass=0;" vertex="1" parent="1">
          <mxGeometry x="424.69" y="130.99999999999994" width="22.5" height="6.75" as="geometry" />
        </mxCell>
        <mxCell id="AQRdRJSOZCZbxSZIa2Jv-13" style="edgeStyle=orthogonalEdgeStyle;rounded=0;orthogonalLoop=1;jettySize=auto;html=1;exitX=0.25;exitY=0;exitDx=0;exitDy=0;entryX=0.5;entryY=1;entryDx=0;entryDy=0;endArrow=oval;endFill=0;" edge="1" parent="1">
          <mxGeometry relative="1" as="geometry">
            <mxPoint x="196.74" y="115.20999999999998" as="targetPoint" />
            <mxPoint x="194.12" y="132.71" as="sourcePoint" />
          </mxGeometry>
        </mxCell>
        <mxCell id="AQRdRJSOZCZbxSZIa2Jv-14" style="edgeStyle=orthogonalEdgeStyle;rounded=0;orthogonalLoop=1;jettySize=auto;html=1;exitX=1;exitY=0;exitDx=0;exitDy=0;entryX=0.25;entryY=1;entryDx=0;entryDy=0;endArrow=oval;endFill=0;" edge="1" parent="1" source="AQRdRJSOZCZbxSZIa2Jv-15">
          <mxGeometry relative="1" as="geometry">
            <mxPoint x="248.74" y="115.20999999999998" as="targetPoint" />
            <mxPoint x="261.62" y="132.71" as="sourcePoint" />
          </mxGeometry>
        </mxCell>
        <mxCell id="AQRdRJSOZCZbxSZIa2Jv-15" value="CiviltÃ " style="whiteSpace=wrap;html=1;align=center;" vertex="1" parent="1">
          <mxGeometry x="189" y="132.75" width="70" height="30" as="geometry" />
        </mxCell>
        <mxCell id="AQRdRJSOZCZbxSZIa2Jv-16" value="" style="curved=1;endArrow=oval;html=1;rounded=0;entryX=0.642;entryY=0.924;entryDx=0;entryDy=0;entryPerimeter=0;endFill=1;" edge="1" parent="1">
          <mxGeometry width="50" height="50" relative="1" as="geometry">
            <mxPoint x="181.99" y="127.94999999999999" as="sourcePoint" />
            <mxPoint x="273.99" y="116.94999999999999" as="targetPoint" />
            <Array as="points">
              <mxPoint x="223.44" y="128.39999999999998" />
              <mxPoint x="273.44" y="128.39999999999998" />
            </Array>
          </mxGeometry>
        </mxCell>
        <mxCell id="AQRdRJSOZCZbxSZIa2Jv-17" value="&lt;font style=&quot;font-size: 8px;&quot;&gt;(1,N)&lt;/font&gt;" style="text;html=1;align=center;verticalAlign=middle;whiteSpace=wrap;rounded=1;strokeColor=none;glass=0;" vertex="1" parent="1">
          <mxGeometry x="154" y="162.75" width="50" height="15" as="geometry" />
        </mxCell>
        <mxCell id="AQRdRJSOZCZbxSZIa2Jv-18" value="&lt;p style=&quot;line-height: 70%;&quot;&gt;&lt;font style=&quot;font-size: 9px;&quot;&gt;Area Geografica&lt;/font&gt;&lt;/p&gt;" style="text;html=1;align=center;verticalAlign=middle;whiteSpace=wrap;rounded=0;" vertex="1" parent="1">
          <mxGeometry x="144" y="176.75" width="60" height="30" as="geometry" />
        </mxCell>
        <mxCell id="AQRdRJSOZCZbxSZIa2Jv-19" style="edgeStyle=orthogonalEdgeStyle;rounded=0;orthogonalLoop=1;jettySize=auto;html=1;exitX=0.25;exitY=1;exitDx=0;exitDy=0;endArrow=oval;endFill=0;" edge="1" parent="1">
          <mxGeometry relative="1" as="geometry">
            <mxPoint x="190.95000000000005" y="162.75" as="sourcePoint" />
            <mxPoint x="192.04000000000002" y="188.25" as="targetPoint" />
          </mxGeometry>
        </mxCell>
        <mxCell id="AQRdRJSOZCZbxSZIa2Jv-20" value="" style="endArrow=none;html=1;rounded=0;entryX=1;entryY=0.5;entryDx=0;entryDy=0;exitX=0;exitY=0.5;exitDx=0;exitDy=0;" edge="1" parent="1" source="AQRdRJSOZCZbxSZIa2Jv-1" target="AQRdRJSOZCZbxSZIa2Jv-15">
          <mxGeometry width="50" height="50" relative="1" as="geometry">
            <mxPoint x="345.99" y="147.63" as="sourcePoint" />
            <mxPoint x="328.9" y="132.75000000000006" as="targetPoint" />
          </mxGeometry>
        </mxCell>
        <mxCell id="AQRdRJSOZCZbxSZIa2Jv-21" style="edgeStyle=orthogonalEdgeStyle;rounded=0;orthogonalLoop=1;jettySize=auto;html=1;endArrow=oval;endFill=0;" edge="1" parent="1">
          <mxGeometry relative="1" as="geometry">
            <mxPoint x="575.99" y="132.75" as="sourcePoint" />
            <mxPoint x="563.99" y="108.63" as="targetPoint" />
            <Array as="points">
              <mxPoint x="575.99" y="132.75" />
            </Array>
          </mxGeometry>
        </mxCell>
        <mxCell id="AQRdRJSOZCZbxSZIa2Jv-22" style="edgeStyle=orthogonalEdgeStyle;rounded=0;orthogonalLoop=1;jettySize=auto;html=1;endArrow=oval;endFill=0;" edge="1" parent="1">
          <mxGeometry relative="1" as="geometry">
            <mxPoint x="604.69" y="132.75" as="sourcePoint" />
            <mxPoint x="608.99" y="108.99999999999997" as="targetPoint" />
            <Array as="points">
              <mxPoint x="604.69" y="132.75" />
            </Array>
          </mxGeometry>
        </mxCell>
        <mxCell id="AQRdRJSOZCZbxSZIa2Jv-23" value="Appartenenza" style="shape=rhombus;perimeter=rhombusPerimeter;whiteSpace=wrap;html=1;align=center;" vertex="1" parent="1">
          <mxGeometry x="343.44000000000005" y="122.13" width="92.5" height="51" as="geometry" />
        </mxCell>
        <mxCell id="AQRdRJSOZCZbxSZIa2Jv-24" value="" style="curved=1;endArrow=oval;html=1;rounded=0;endFill=1;" edge="1" parent="1">
          <mxGeometry width="50" height="50" relative="1" as="geometry">
            <mxPoint x="548.99" y="119.63" as="sourcePoint" />
            <mxPoint x="486.74" y="162.63" as="targetPoint" />
            <Array as="points">
              <mxPoint x="488.99" y="119.63" />
              <mxPoint x="486.74" y="169.23000000000002" />
            </Array>
          </mxGeometry>
        </mxCell>
      </root>
    </mxGraphModel>
  </diagram>
</mxfile>
